<?xml version="1.0" encoding="UTF-8" standalone="no"?>
<!--?xml version="1.0" standalone="no"?-->

<svg
   xmlns:dc="http://purl.org/dc/elements/1.1/"
   xmlns:cc="http://creativecommons.org/ns#"
   xmlns:rdf="http://www.w3.org/1999/02/22-rdf-syntax-ns#"
   xmlns:svg="http://www.w3.org/2000/svg"
   xmlns="http://www.w3.org/2000/svg"
   xmlns:sodipodi="http://sodipodi.sourceforge.net/DTD/sodipodi-0.dtd"
   xmlns:inkscape="http://www.inkscape.org/namespaces/inkscape"
   version="1.0"
   width="300.000000pt"
   height="248.000000pt"
   viewBox="0 0 300.000000 248.000000"
   preserveAspectRatio="xMidYMid meet"
   id="svg2"
   inkscape:version="0.91 r"
   sodipodi:docname="telephone-clipart.svg">
  <defs
     id="defs35" />
  <sodipodi:namedview
     pagecolor="#ffffff"
     bordercolor="#666666"
     borderopacity="1"
     objecttolerance="10"
     gridtolerance="10"
     guidetolerance="10"
     inkscape:pageopacity="0"
     inkscape:pageshadow="2"
     inkscape:window-width="1311"
     inkscape:window-height="744"
     id="namedview33"
     showgrid="false"
     inkscape:zoom="0.76129032"
     inkscape:cx="-3.6228814"
     inkscape:cy="155"
     inkscape:window-x="55"
     inkscape:window-y="24"
     inkscape:window-maximized="1"
     inkscape:current-layer="svg2" />
  <metadata
     id="metadata4">
    <rdf:rdf>
      <rdf:description
         dc:title="telephone clipart"
         dc:publisher="Hiox"
         dc:date="2015-07-07"
         dc:format="image/svg+xml"
         dc:language="en">
        <dc:creator>
          <rdf:bag>
            <rdf:li>svgimages.com</rdf:li>
          </rdf:bag>
        </dc:creator>
      </rdf:description>
    </rdf:rdf>
    <rdf:RDF>
      <cc:Work
         rdf:about="">
        <dc:format>image/svg+xml</dc:format>
        <dc:type
           rdf:resource="http://purl.org/dc/dcmitype/StillImage" />
      </cc:Work>
    </rdf:RDF>
  </metadata>
  <g
     transform="translate(0.000000,248.000000) scale(0.100000,-0.100000)"
     fill="#060606"
     stroke="none"
     id="g6"
     style="fill:#272727;fill-opacity:1">
    <path
       stroke-width="20"
       class="node"
       id="node1"
       d="M1310 2469 c-139 -11 -406 -61 -550 -104 -63 -18 -149 -43 -190 -55 -193 -56 -285 -121 -345 -245 -27 -55 -30 -69 -30 -170 0 -102 2 -115 31 -176 17 -36 48 -85 68 -107 l37 -41 -34 6 c-46 7 -53 -8 -21 -46 14 -17 24 -31 22 -31 -2 0 -17 4 -35 9 -24 7 -35 6 -44 -5 -10 -12 -7 -21 17 -46 l29 -30 -25 7 c-14 4 -27 7 -30 7 -48 1 -52 -14 -13 -54 l28 -29 -41 7 c-57 9 -67 -10 -25 -48 l32 -28 -43 2 c-56 4 -64 -22 -16 -52 l33 -20 -47 0 c-58 0 -63 -17 -15 -54 l32 -26 -42 0 c-23 0 -44 -4 -47 -9 -7 -10 13 -35 38 -48 15 -9 12 -11 -23 -17 -52 -8 -53 -29 -4 -55 l38 -20 -30 -1 c-64 -1 -72 -39 -14 -64 l32 -13 -39 -10 c-53 -12 -56 -37 -8 -53 l38 -13 -35 -11 c-49 -16 -47 -47 6 -62 l40 -11 -38 -12 c-53 -18 -51 -48 3 -57 l41 -7 -31 -18 c-47 -29 -39 -49 18 -49 l47 0 -32 -26 c-18 -14 -33 -32 -33 -39 0 -19 33 -27 64 -15 29 11 29 3 -2 -32 -33 -39 12 -63 58 -31 23 16 23 16 15 -3 -26 -64 -5 -96 39 -55 30 29 33 27 32 -17 -1 -31 3 -38 21 -40 17 -3 24 5 34 33 l13 36 11 -32 c22 -66 64 -62 65 6 l0 29 29 -34 c24 -29 31 -33 44 -22 11 10 14 24 10 50 l-6 37 28 -28 c16 -15 33 -26 39 -24 13 5 13 41 2 76 l-8 24 27 -21 c49 -39 77 -23 51 30 -21 41 -20 43 9 24 13 -9 33 -16 43 -16 10 0 23 -5 28 -10 7 -7 298 -10 888 -10 995 0 885 -10 968 88 91 106 118 203 94 331 -22 119 -87 236 -250 456 -165 221 -245 362 -261 460 -12 76 -15 85 -40 101 -13 9 -57 21 -97 28 l-73 12 -3 114 c-1 63 -1 119 2 125 3 8 33 8 112 -2 148 -17 235 -31 242 -38 3 -3 -8 -20 -25 -38 -42 -44 -53 -68 -54 -119 -1 -34 -2 -38 -8 -18 -9 33 -56 41 -64 11 -16 -63 63 -202 181 -320 133 -133 272 -220 381 -239 68 -12 83 -7 79 27 -2 20 -10 27 -33 32 l-30 7 32 1 c17 0 42 5 55 10 44 17 120 104 157 181 35 72 36 79 36 185 0 106 -1 113 -35 179 -21 42 -54 86 -85 114 -50 45 -154 102 -187 102 -9 0 -56 13 -105 29 -135 44 -259 77 -358 96 -49 9 -124 23 -165 31 -173 32 -500 42 -750 23z m530 -237 l35 -8 0 -118 0 -118 -280 0 -280 1 -3 117 c-2 83 1 120 9 125 16 10 475 11 519 1z m-582 -134 l-3 -122 -73 -12 c-105 -18 -115 -27 -136 -122 -19 -89 -74 -203 -150 -309 -103 -146 -122 -173 -185 -260 -88 -120 -166 -277 -182 -364 -19 -106 16 -231 85 -306 30 -32 28 -38 -8 -22 -39 18 -52 0 -32 -40 17 -32 8 -42 -14 -16 -7 8 -21 15 -32 15 -21 0 -21 -1 -3 -70 l6 -25 -21 28 c-12 15 -31 27 -42 27 -19 0 -20 -4 -13 -48 l7 -47 -24 34 c-26 39 -42 42 -46 9 -6 -48 -14 -54 -25 -19 -16 47 -29 48 -56 4 l-22 -38 4 36 c8 58 -6 69 -44 34 -23 -21 -30 -25 -26 -12 25 70 19 79 -33 52 -34 -18 -39 -7 -10 20 36 32 26 49 -25 42 l-45 -7 32 29 c41 36 31 55 -26 47 -38 -6 -40 -5 -21 9 11 9 29 22 39 29 27 17 12 36 -30 36 -43 0 -43 11 -1 30 43 20 40 33 -11 44 l-43 10 43 16 c57 21 55 31 -12 58 l-25 10 32 7 c18 4 38 14 44 21 9 11 3 18 -32 34 l-44 20 35 0 c33 0 60 14 60 31 0 4 -17 15 -37 25 l-38 19 35 3 c55 5 60 19 20 54 -34 29 -34 30 -8 24 61 -14 78 22 26 55 l-33 20 35 -1 c71 -4 77 6 32 45 l-27 24 43 1 c52 0 55 18 9 54 l-32 26 37 -6 c20 -4 45 -4 54 0 15 6 13 12 -16 41 l-34 35 47 -6 c56 -8 61 5 20 48 l-26 28 34 -10 c19 -6 40 -10 46 -10 20 0 15 32 -9 58 l-23 24 30 -8 c17 -5 59 -8 95 -8 52 0 78 6 131 31 149 71 324 236 389 366 31 62 41 63 16 2 -40 -96 -214 -272 -343 -348 -52 -30 -104 -52 -144 -60 -49 -10 -65 -17 -68 -32 -8 -44 51 -49 158 -11 110 40 303 198 398 326 51 69 97 174 89 206 -8 32 -49 33 -64 2 -10 -21 -11 -19 -11 18 -1 39 -40 110 -70 129 -6 3 -11 10 -11 15 0 13 208 46 313 49 l48 1 -3 -122z m1058 -289 c93 -114 226 -217 344 -266 30 -12 47 -23 36 -23 -28 0 -152 66 -216 115 -113 87 -271 279 -270 326 1 8 13 -8 27 -36 14 -27 50 -80 79 -116z m-693 -6 c-18 -2 -48 -2 -65 0 -18 2 -4 4 32 4 36 0 50 -2 33 -4z m-163 -26 c-123 -42 -226 -122 -271 -209 -11 -21 -22 -38 -24 -38 -10 0 28 65 61 105 18 22 53 55 78 74 55 41 162 90 196 90 15 0 -2 -9 -40 -22z m237 17 c-3 -3 -12 -4 -19 -1 -8 3 -5 6 6 6 11 1 17 -2 13 -5z m109 -35 c116 -55 229 -188 249 -294 3 -16 -3 -7 -14 22 -22 60 -66 127 -115 175 -49 49 -59 55 -138 93 -40 19 -67 35 -60 35 6 0 42 -14 78 -31z m-129 -21 c47 -44 16 -118 -49 -118 -17 0 -40 7 -50 17 -23 20 -24 80 -1 105 22 25 71 23 100 -4z m-190 -30 c35 -39 35 -67 3 -99 -34 -34 -58 -36 -94 -8 -52 41 -19 129 49 129 12 0 31 -10 42 -22z m365 -35 c24 -22 24 -77 -2 -103 -42 -42 -120 -12 -120 48 0 45 26 72 67 72 20 0 45 -7 55 -17z m-507 -88 c33 -32 31 -60 -5 -97 -25 -24 -36 -29 -58 -23 -36 9 -50 24 -58 62 -5 26 -1 37 19 57 33 33 71 33 102 1z m638 -77 c35 -47 3 -108 -57 -108 -61 0 -93 66 -55 113 28 37 83 35 112 -5z m-839 -35 c-8 -25 -14 -59 -14 -75 0 -16 -4 -27 -9 -24 -13 8 19 146 34 146 1 0 -3 -21 -11 -47z m134 -50 c54 -45 21 -127 -49 -125 -64 2 -91 71 -44 117 28 29 65 32 93 8z m782 -221 c-11 -38 -20 -72 -20 -76 0 -3 16 -6 35 -6 l35 0 0 -50 c0 -56 -6 -59 -74 -35 -38 13 -40 13 -67 -16 -15 -16 -31 -29 -35 -29 -4 0 5 14 22 31 17 19 24 33 17 36 -59 21 -166 122 -157 147 4 11 21 5 74 -25 38 -22 85 -43 104 -46 34 -5 35 -5 51 48 9 30 20 88 23 129 l7 75 3 -57 c2 -37 -4 -82 -18 -126z m-759 37 c55 -39 29 -119 -38 -119 -49 0 -73 24 -73 71 0 64 55 88 111 48z m-164 -51 c-3 -8 -6 -5 -6 6 -1 11 2 17 5 13 3 -3 4 -12 1 -19z m132 -199 c69 -68 151 -111 251 -130 l45 -8 -53 3 c-73 4 -189 63 -256 131 -49 48 -117 154 -116 179 1 6 15 -16 32 -49 17 -34 60 -88 97 -126z m131 121 c26 -14 42 -65 29 -94 -11 -23 -47 -46 -73 -46 -24 0 -66 48 -66 75 0 14 11 37 25 50 25 26 54 31 85 15z m354 -71 c50 -40 25 -129 -36 -129 -71 0 -103 78 -52 125 33 30 53 31 88 4z m-176 -19 c26 -24 29 -66 6 -98 -19 -27 -78 -30 -106 -5 -43 38 -7 123 52 123 14 0 36 -9 48 -20z m327 -66 c-37 -31 -162 -94 -184 -93 -16 0 3 10 84 44 22 9 56 29 75 45 19 16 40 29 45 29 6 0 -3 -11 -20 -25z m-206 -98 c-10 -9 -79 -14 -74 -5 4 5 22 9 42 9 20 0 34 -2 32 -4z"
       style="fill:#272727;fill-opacity:1" />
    <path
       class="node"
       id="node2"
       d="M708 469 c-42 -24 -11 -79 44 -79 24 0 24 0 -15 -79 -21 -44 -41 -96 -44 -115 -6 -38 8 -66 34 -66 9 0 59 45 112 99 70 72 113 107 158 130 l62 31 538 0 538 0 61 -33 c74 -39 101 -62 178 -149 65 -74 90 -88 113 -65 21 21 2 103 -42 184 l-35 63 33 0 c18 0 38 5 45 12 18 18 14 56 -7 68 -27 14 -1749 13 -1773 -1z"
       style="fill:#272727;fill-opacity:1" />
  </g>
  <g
     transform="translate(0.000000,248.000000) scale(0.100000,-0.100000)"
     fill="#FFFFFF"
     stroke="none"
     id="g10">
    <path
       class="node"
       id="node31"
       d="M1558 1803 c17 -2 47 -2 65 0 17 2 3 4 -33 4 -36 0 -50 -2 -32 -4z" />
    <path
       class="node"
       id="node32"
       d="M1412 1771 c-76 -34 -143 -82 -186 -136 -33 -40 -71 -105 -61 -105 2 0 13 17 24 38 45 87 148 167 271 209 38 13 55 22 40 22 -14 0 -53 -12 -88 -28z" />
    <path
       class="node"
       id="node33"
       d="M1678 1793 c7 -3 16 -2 19 1 4 3 -2 6 -13 5 -11 0 -14 -3 -6 -6z" />
    <path
       class="node"
       id="node34"
       d="M1788 1755 c79 -38 89 -44 138 -93 49 -48 93 -115 115 -175 11 -29 17 -38 14 -22 -20 106 -133 239 -249 294 -36 17 -72 31 -78 31 -7 0 20 -16 60 -35z" />
    <path
       class="node"
       id="node35"
       d="M1577 1742 c-23 -25 -22 -85 1 -105 44 -40 122 -7 122 51 0 59 -85 96 -123 54z" />
    <path
       class="node"
       id="node36"
       d="M1396 1709 c-19 -15 -26 -30 -26 -54 0 -24 7 -39 26 -54 36 -28 60 -26 94 8 32 32 32 60 -3 99 -26 28 -56 28 -91 1z" />
    <path
       class="node"
       id="node37"
       d="M1746 1668 c-36 -51 -5 -118 54 -118 40 0 70 31 70 73 0 43 -26 67 -73 67 -26 0 -40 -6 -51 -22z" />
    <path
       class="node"
       id="node38"
       d="M1243 1584 c-20 -20 -24 -31 -19 -57 8 -38 22 -53 58 -62 22 -6 33 -1 58 23 36 37 38 65 5 97 -31 32 -69 32 -102 -1z" />
    <path
       class="node"
       id="node39"
       d="M1871 1513 c-38 -47 -6 -113 55 -113 93 0 95 130 2 138 -29 2 -40 -2 -57 -25z" />
    <path
       class="node"
       id="node40"
       d="M1146 1511 c-13 -21 -33 -131 -25 -137 5 -3 9 8 9 24 0 16 6 50 14 75 13 44 14 58 2 38z" />
    <path
       class="node"
       id="node41"
       d="M1185 1415 c-47 -46 -20 -115 44 -117 26 -1 40 6 58 27 60 69 -38 155 -102 90z" />
    <path
       class="node"
       id="node42"
       d="M2068 1310 c-3 -41 -14 -99 -23 -129 -16 -53 -17 -53 -51 -48 -19 3 -66 24 -104 46 -53 30 -70 36 -74 25 -9 -25 98 -126 157 -147 7 -3 0 -17 -17 -36 -17 -17 -26 -31 -22 -31 4 0 20 13 35 29 27 29 29 29 67 16 68 -24 74 -21 74 35 l0 50 -35 0 c-19 0 -35 3 -35 6 0 4 9 38 20 76 14 44 20 89 18 126 l-3 57 -7 -75z" />
    <path
       class="node"
       id="node43"
       d="M1212 1244 c-28 -20 -31 -83 -4 -107 28 -25 87 -22 106 5 25 36 20 74 -13 97 -35 25 -59 26 -89 5z" />
    <path
       class="node"
       id="node44"
       d="M1131 1194 c0 -11 3 -14 6 -6 3 7 2 16 -1 19 -3 4 -6 -2 -5 -13z" />
    <path
       class="node"
       id="node45"
       d="M1140 1164 c-1 -25 67 -131 116 -179 67 -68 183 -127 256 -131 l53 -3 -45 8 c-25 5 -76 21 -115 37 -86 34 -186 128 -233 219 -17 33 -31 55 -32 49z" />
    <path
       class="node"
       id="node46"
       d="M1315 1095 c-33 -32 -32 -70 1 -100 30 -28 42 -30 77 -14 35 16 49 51 36 89 -19 54 -74 66 -114 25z" />
    <path
       class="node"
       id="node47"
       d="M1666 1035 c-51 -47 -19 -125 52 -125 61 0 86 89 36 129 -35 27 -55 26 -88 -4z" />
    <path
       class="node"
       id="node48"
       d="M1482 1020 c-28 -26 -29 -80 -4 -103 28 -25 87 -22 106 5 35 50 4 118 -54 118 -14 0 -36 -9 -48 -20z" />
    <path
       class="node"
       id="node49"
       d="M1880 950 c-19 -16 -53 -36 -75 -45 -81 -34 -100 -44 -84 -44 22 -1 147 62 184 93 17 14 26 25 20 25 -5 0 -26 -13 -45 -29z" />
    <path
       class="node"
       id="node50"
       d="M0 837 c0 -23 2 -23 35 -13 34 11 32 17 -12 30 -20 6 -23 4 -23 -17z" />
    <path
       class="node"
       id="node51"
       d="M1625 851 c-3 -6 10 -7 32 -4 50 8 55 13 10 13 -20 0 -38 -4 -42 -9z" />
  </g>
</svg>
